# xmcd
#
# Track frame offsets:
#	150
#	15060
#	30036
#	48865
#	66573
#	83998
#	100372
#	112949
#	128092
#	142412
#	156414
#	172691
#	190495
#	208128
#	223218
#	242230
#	259363
#	273806
#	287963
#	302724
#	317765
#	330393
#
# Disc length: 4604 seconds
#
# Revision: 1
# Processed by: cddbd v1.5.2PL0 Copyright (c) Steve Scherf et al.
# Submitted via: audiograbber 1.83.01
#
DISCID=4311fa16
DTITLE=Various Artist - ERG NCT 160
DYEAR=2007
DGENRE=Country
TTITLE0=Garth Brooks - More Than A Memory
TTITLE1=Paul Brandt - Come On Get Some
TTITLE2=Kenny Chesney - Don't Blink 
TTITLE3=George Strait - How 'Bout Them Cowgirls
TTITLE4=Eric Church - Sinners Like Me
TTITLE5=Gary Allan - Watching Airplanes
TTITLE6=Mark Chesnutt - Rolling With The Flow
TTITLE7=Taylor Swift - Our Song
TTITLE8=Trace Adkins - I Got My Game On
TTITLE9=Johnny Reid - Darlin
TTITLE10=Bomshel - Power Of One, The
TTITLE11=Little Big Town - I'm With The Band
TTITLE12=Keith Urban - Everybody
TTITLE13=Andy Griggs - What If It's Me
TTITLE14=Jessie Farrell - Fell Right Into You
TTITLE15=Damian Marshall - I Know What Love Is
TTITLE16=Gord Bamford - Blame It On That Red Dress
TTITLE17=Bucky Covington - Its Good To Be Us
TTITLE18=Pirates Of The Mississippi - Heaven And A Dixie Night
TTITLE19=Jason Aldean - Laughed Until We Cried
TTITLE20=Cowboy Crush - Miss Difficult
TTITLE21=Kristina Cornell - It's A Girl Thing
EXTD=
EXTT0=
EXTT1=
EXTT2=
EXTT3=
EXTT4=
EXTT5=
EXTT6=
EXTT7=
EXTT8=
EXTT9=
EXTT10=
EXTT11=
EXTT12=
EXTT13=
EXTT14=
EXTT15=
EXTT16=
EXTT17=
EXTT18=
EXTT19=
EXTT20=
EXTT21=
PLAYORDER=
